<?xml version="1.0" encoding="UTF-8" standalone="no"?>
<!-- Created with Inkscape (http://www.inkscape.org/) -->

<svg
   xmlns:dc="http://purl.org/dc/elements/1.1/"
   xmlns:cc="http://creativecommons.org/ns#"
   xmlns:rdf="http://www.w3.org/1999/02/22-rdf-syntax-ns#"
   xmlns:svg="http://www.w3.org/2000/svg"
   xmlns="http://www.w3.org/2000/svg"
   xmlns:sodipodi="http://sodipodi.sourceforge.net/DTD/sodipodi-0.dtd"
   xmlns:inkscape="http://www.inkscape.org/namespaces/inkscape"
   width="128"
   height="128"
   viewBox="0 0 128 128"
   id="svg2"
   version="1.1"
   inkscape:version="0.91 r13725"
   sodipodi:docname="favicon.2svg.svg">
  <defs
     id="defs4" />
  <sodipodi:namedview
     id="base"
     pagecolor="#ffffff"
     bordercolor="#666666"
     borderopacity="1.0"
     inkscape:pageopacity="0.0"
     inkscape:pageshadow="2"
     inkscape:zoom="1.979899"
     inkscape:cx="86.253253"
     inkscape:cy="52.294836"
     inkscape:document-units="px"
     inkscape:current-layer="g4149"
     showgrid="false"
     units="px"
     inkscape:window-width="1366"
     inkscape:window-height="715"
     inkscape:window-x="0"
     inkscape:window-y="27"
     inkscape:window-maximized="1" />
  <metadata
     id="metadata7">
    <rdf:RDF>
      <cc:Work
         rdf:about="">
        <dc:format>image/svg+xml</dc:format>
        <dc:type
           rdf:resource="http://purl.org/dc/dcmitype/StillImage" />
        <dc:title />
      </cc:Work>
    </rdf:RDF>
  </metadata>
  <g
     inkscape:label="Layer 1"
     inkscape:groupmode="layer"
     id="layer1"
     transform="translate(0,-924.36216)">
    <g
       id="g4149">
      <path
         style="opacity:1;fill:#e20570;fill-opacity:1;stroke:none;stroke-width:100;stroke-miterlimit:4;stroke-dasharray:none;stroke-opacity:1"
         d="m 107.42476,943.3368 -43.602168,45.30843 45.308398,43.60217 a 62.881996,62.881996 0 0 0 -1.70623,-88.9106 z m -3.93212,-2.92476 C 80.272957,920.41894 45.767339,920.82358 23.023882,941.3568 l 2.513582,2.78485 c 21.36254,-19.2865 53.699686,-19.66606 75.509536,-0.88689 l 2.44564,-2.84272 z m -85.342965,4.28027 A 62.881996,62.881996 0 0 0 0.58689413,989.50101 62.881996,62.881996 0 0 0 19.854568,1033.6043 l 43.603537,-45.30983 -45.30843,-43.60216 z m 85.415815,86.32199 c -21.364629,20.3633 -54.623451,21.2801 -77.077046,2.1243 l -2.45465,2.8774 c 23.903645,20.3928 59.395299,19.414 82.139716,-2.2642 l -2.60802,-2.7375 z"
         id="path4684"
         inkscape:connector-curvature="0" />
      <path
         sodipodi:open="true"
         d="M 47.010393,955.71549 A 15.404826,15.404826 0 0 1 61.268054,939.26502 15.404826,15.404826 0 0 1 77.740088,953.49776 15.404826,15.404826 0 0 1 63.532294,969.99132 15.404826,15.404826 0 0 1 47.017247,955.80851"
         sodipodi:end="3.0650076"
         sodipodi:start="3.0710624"
         sodipodi:ry="15.404826"
         sodipodi:rx="15.404826"
         sodipodi:cy="954.62988"
         sodipodi:cx="62.376919"
         sodipodi:type="arc"
         id="path4181"
         style="opacity:1;fill:#0f59a6;fill-opacity:0.99375;stroke:none;stroke-width:4;stroke-miterlimit:4;stroke-dasharray:none;stroke-opacity:1" />
      <path
         style="opacity:1;fill:#0f59a6;fill-opacity:0.99375;stroke:none;stroke-width:4;stroke-miterlimit:4;stroke-dasharray:none;stroke-opacity:1"
         id="path4150"
         sodipodi:type="arc"
         sodipodi:cx="63.892147"
         sodipodi:cy="1024.8354"
         sodipodi:rx="15.404826"
         sodipodi:ry="15.404826"
         sodipodi:start="3.0710624"
         sodipodi:end="3.0650076"
         d="m 48.525621,1025.9211 a 15.404826,15.404826 0 0 1 14.257661,-16.4505 15.404826,15.404826 0 0 1 16.472034,14.2327 15.404826,15.404826 0 0 1 -14.207794,16.4936 15.404826,15.404826 0 0 1 -16.515046,-14.1828"
         sodipodi:open="true" />
    </g>
  </g>
</svg>
